<svg width="77" height="39" viewBox="0 0 77 39" fill="none" xmlns="http://www.w3.org/2000/svg">
<path d="M58.9847 10.5483C57.966 10.5483 57.0122 10.9424 56.2928 11.657L53.4 14.5423C52.6181 15.3215 52.2182 16.4012 52.3009 17.5077C52.3076 17.5678 52.312 17.6301 52.3188 17.6903C52.4237 18.5407 52.7968 19.3065 53.4 19.9076C53.8177 20.3239 54.3315 20.6401 54.8877 20.8226C54.9168 20.9896 54.9324 21.161 54.9324 21.3302C54.9324 22.0938 54.6353 22.8107 54.0947 23.3495L53.916 23.5276C52.9487 23.1981 52.0909 22.6638 51.3604 21.938C50.3931 20.974 49.7542 19.7585 49.513 18.4227L49.4795 18.2357L49.332 18.3559C49.2337 18.4361 49.1377 18.5229 49.0506 18.6097L46.1554 21.495C44.6721 22.9732 44.6721 25.3798 46.1554 26.8603C46.8971 27.5994 47.8733 27.969 48.8473 27.969C49.8213 27.969 50.7975 27.5994 51.5391 26.8603L54.4342 23.975C55.9176 22.4968 55.9176 20.0902 54.4342 18.6119C54.0388 18.2179 53.5675 17.9218 53.0336 17.7303C53.0046 17.5567 52.9889 17.383 52.9889 17.2138C52.9889 16.3834 53.3195 15.5953 53.9205 14.9942C54.89 15.3237 55.7478 15.858 56.4738 16.5816C57.4388 17.5433 58.0777 18.7589 58.3212 20.0969L58.3547 20.2839L58.5022 20.1637C58.6005 20.0835 58.6965 19.9967 58.7859 19.9076L61.681 17.0246C63.1643 15.5463 63.1643 13.1397 61.681 11.6593C60.9639 10.9446 60.0078 10.5506 58.9892 10.5506L58.9847 10.5483Z" fill="#1C3C3C"/>
<path d="M57.4333 0H19.5667C8.77696 0 0 8.74706 0 19.5C0 30.2529 8.77696 39 19.5667 39H57.4333C68.223 39 77 30.2529 77 19.5C77 8.74706 68.223 0 57.4333 0ZM38.7558 30.5735C38.1303 30.7027 37.4288 30.7271 36.953 30.2285C36.7766 30.6314 36.3677 30.4199 36.0483 30.3665C36.0193 30.4489 35.9947 30.5201 35.9656 30.6025C34.9113 30.6737 34.1205 29.6006 33.6178 28.7903C32.6193 28.2537 31.4867 27.9243 30.468 27.361C30.4077 28.2894 30.6132 29.4381 29.7264 30.0392C29.6817 31.8225 32.4361 30.2485 32.6863 31.5798C32.4897 31.5998 32.273 31.5486 32.1167 31.7C31.3996 32.3969 30.573 31.1746 29.7465 31.6778C28.6363 32.2366 28.5223 32.6907 27.1485 32.8065C27.0725 32.6929 27.1038 32.615 27.1686 32.546C27.555 32.0985 27.5819 31.5687 28.2453 31.3772C27.564 31.2704 26.9943 31.6444 26.4225 31.9427C25.6763 32.2455 25.683 31.257 24.5348 31.9939C24.4075 31.8915 24.4678 31.798 24.5415 31.7178C24.8342 31.3639 25.2162 31.3104 25.6495 31.3305C23.5229 30.1483 22.5221 32.7753 21.5392 31.4707C21.2443 31.5486 21.1326 31.8136 20.9472 32.0028C20.7864 31.8269 20.9092 31.6154 20.9159 31.4084C20.7238 31.3193 20.4803 31.2748 20.5384 30.9698C20.1609 30.8429 19.9017 31.0655 19.6225 31.277C19.3701 31.0833 19.7923 30.7962 19.8705 30.5936C20.0961 30.2017 20.6076 30.5134 20.869 30.2329C21.6084 29.8144 22.6405 30.4956 23.4849 30.3798C24.1372 30.4622 24.9436 29.7943 24.6152 29.1309C23.9183 28.2448 24.0434 27.0849 24.0277 26.023C23.9406 25.4063 22.4528 24.6182 22.0217 23.9503C21.49 23.3492 21.0745 22.6546 20.6613 21.9689C19.1646 19.0815 19.6359 15.3702 17.7505 12.6876C16.8972 13.1573 15.7869 12.9347 15.0497 12.3047C14.6521 12.6653 14.6342 13.1373 14.6029 13.6382C13.6513 12.6898 13.7697 10.8954 14.5315 9.83794C14.842 9.4194 15.2128 9.07655 15.6305 8.776C15.7244 8.70921 15.7556 8.6402 15.7534 8.53556C16.5062 5.15829 21.6442 5.8106 23.2704 8.20162C24.4499 9.67319 24.8051 11.6212 26.141 12.9904C27.9393 14.9517 29.9878 16.6793 31.6475 18.7698C33.2157 20.6799 34.3394 22.9173 35.3156 25.1748C35.7155 25.9228 35.7177 26.8423 36.3097 27.4812C36.6023 27.8664 38.0253 28.9172 37.717 29.289C37.8957 29.6741 39.2249 30.2084 38.7647 30.5824L38.7558 30.5735ZM63.7128 19.0525L60.8199 21.9378C60.0492 22.7058 59.0954 23.2802 58.0633 23.5941L58.0119 23.6097L57.9918 23.6609C57.6545 24.547 57.1452 25.3351 56.4728 26.0052L53.5776 28.8905C52.3155 30.1483 50.6356 30.8407 48.8485 30.8407C47.0614 30.8407 45.3815 30.1483 44.1194 28.8927C41.5124 26.2946 41.5124 22.0647 44.1194 19.4666L47.0145 16.5813C47.7896 15.8088 48.7167 15.2545 49.7666 14.9317L49.818 14.9161L49.8381 14.8649C50.1732 13.9788 50.687 13.1885 51.3639 12.5139L54.2568 9.62867C55.5189 8.37082 57.1988 7.67845 58.9859 7.67845C60.773 7.67845 62.4551 8.37082 63.715 9.62867C64.975 10.8865 65.6719 12.5607 65.6697 14.3417C65.6697 16.125 64.975 17.7991 63.7128 19.0547V19.0525Z" fill="#1C3C3C"/>
<path d="M26.9819 27.0802C26.7272 28.0664 26.6446 29.7473 25.3579 29.7963C25.2529 30.3662 25.7533 30.5799 26.2112 30.3974C26.6625 30.1903 26.8769 30.5599 27.031 30.9294C27.728 31.0318 28.7623 30.6979 28.8025 29.872C27.7593 29.2731 27.4376 28.1332 26.9841 27.0802H26.9819Z" fill="#1C3C3C"/>
</svg>
